<svg id="112198750" viewBox="0 0 327.6 565" height="1400" width="1000"
        style="width: 1000px; height: 1400px; position: absolute; top: 30%; left: 50%; transform: translate(-50%, -50%) scale(0.222222); z-index: 0; cursor: pointer;">
        <defs id="SvgjsDefs1186">
          <linearGradient id="SvgjsLinearGradient1195">
            <stop id="SvgjsStop1196" stop-color="#8f5e25" offset="0"></stop>
            <stop id="SvgjsStop1197" stop-color="#fbf4a1" offset="0.5"></stop>
            <stop id="SvgjsStop1198" stop-color="#8f5e25" offset="1"></stop>
          </linearGradient>
          <linearGradient id="SvgjsLinearGradient1199">
            <stop id="SvgjsStop1200" stop-color="#8f5e25" offset="0"></stop>
            <stop id="SvgjsStop1201" stop-color="#fbf4a1" offset="0.5"></stop>
            <stop id="SvgjsStop1202" stop-color="#8f5e25" offset="1"></stop>
          </linearGradient>
          <linearGradient id="SvgjsLinearGradient1203">
            <stop id="SvgjsStop1204" stop-color="#8f5e25" offset="0"></stop>
            <stop id="SvgjsStop1205" stop-color="#fbf4a1" offset="0.5"></stop>
            <stop id="SvgjsStop1206" stop-color="#8f5e25" offset="1"></stop>
          </linearGradient>
          <linearGradient id="SvgjsLinearGradient1207">
            <stop id="SvgjsStop1208" stop-color="#8f5e25" offset="0"></stop>
            <stop id="SvgjsStop1209" stop-color="#fbf4a1" offset="0.5"></stop>
            <stop id="SvgjsStop1210" stop-color="#8f5e25" offset="1"></stop>
          </linearGradient>
        </defs>
        <g id="SvgjsG1187" featurekey="rootContainer" transform="matrix(1.05,0,0,1.05,-5.25,19)"
          fill="url(#SvgjsLinearGradient1195)">
          <path xmlns="http://www.w3.org/2000/svg" fill-rule="evenodd"
            d="M5,65 L161,0 L317, 65 L161, 10 z M5,440 L161,520 L317,435 L161, 510 z"></path>
        </g>
        <g id="SvgjsG1188" featurekey="symbolFeature-0"
          transform="matrix(0.31714163995756484,0,0,0.31714163995756484,89.66066643698205,107.64729425268723)"
          fill="url(#SvgjsLinearGradient1199)">
          <g xmlns="http://www.w3.org/2000/svg">
            <path
              d="M241.395,296.37c-35.57,74.22-70.504,147.11-105.437,220.001c-0.652-0.255-1.304-0.51-1.956-0.764   c0.546-1.807,1.053-3.626,1.642-5.418c27.572-83.861,55.115-167.732,82.823-251.549c1.554-4.702,1.276-8.312-1.254-12.659   c-23.43-40.262-46.612-80.667-69.872-121.027c-0.532-0.923-3.78-4.734-10.283-2.371c-2.829,0.879-5.622,1.765-8.388,2.728   c-18.859,6.566-45.814-3.752-56.93-21.402c-9.211-14.625-11.607-29.947-6.778-46.668c3.465-11.998-0.577-23.326-8.999-33.405   c-1.702-1.697-3.59-3.231-5.646-4.565c-1.177-0.764-2.408-1.461-3.692-2.086c-1.763-0.859-4.654-1.831-7.337-2.91   c-2.862-1.151-5.454-2.573-6.345-4.06c-0.6-1.692-0.494-3.117,1.007-4.099c2.601-1.703,5.845-1.368,6.806-1.4   c13.628,0.656,30.195,19.374,35.4,24.987c1.441,1.554,1.584,2.85,3.925,1.834c2.341-1.017,1.535-0.656,1.905-0.819   c1.384-0.61,14.837-7.018,22.364-8.977c28.299-7.365,56.179,10.32,63.444,38.657c3.675,14.334,1.022,27.222-5.113,40.043   c-0.816,1.706-1.066,4.548-0.194,6.073c25.585,44.728,51.344,89.356,77.1,133.985c0.116,0.202,0.341,0.594,0.595,0.937   c0.364,0.493,0.788,0.883,1.036,0.455c0.038-0.066,0.282-0.488,0.704-1.219c4.245-7.348,26.502-45.875,38.315-66.309   c27.441-47.466,54.98-94.876,82.203-142.466c3.037-5.31,5.94-6.091,10.68-3.074c3.125,1.989,7.96,3.246,9.12,6.038   c2.554,6.151-7.974,2.885,11.663,12.771c6.469,3.836,16.286,8.357,20.001,10.574c3.715,2.217,19.953,11.573,20.842,12.088   c0.889,0.514,5.707,4.058,3.413,8.242c-2.461,4.488-5.579,3.676-9.294,1.516c-14.966-8.704-30.021-17.254-45.049-25.85   c-1.949-1.115-3.935-2.164-6.384-3.506c-1.954,3.363-3.776,6.497-5.941,10.224c7.65,4.425,15.054,8.728,22.479,12.997   c9.292,5.342,18.549,10.748,27.928,15.932c3.619,2,6.43,3.939,3.838,8.567c-2.53,4.518-5.664,3.523-9.322,1.402   c-16.573-9.611-33.221-19.092-50.419-28.95c-1.968,3.265-3.803,6.308-5.902,9.79c17.411,9.98,34.298,19.803,51.346,29.337   c4.539,2.538,5.32,5.287,2.361,9.36c-2.514,3.462-5.232,2.119-8.094,0.471c-15.004-8.638-30.036-17.228-45.06-25.83   c-1.786-1.022-3.589-2.014-6.021-3.377c-1.894,3.099-3.736,6.115-5.907,9.668c10.758,6.197,21.055,12.143,31.367,18.064   c6.971,4.003,13.904,8.076,20.969,11.907c3.436,1.864,4.3,4.258,2.482,7.582c-1.888,3.453-4.35,4.467-8.128,2.277   c-17.116-9.923-34.328-19.679-52.155-29.867c-2.027,3.324-4,6.559-6.254,10.254c15.491,8.893,30.627,17.583,45.764,26.27   c1.966,1.128,3.888,2.354,5.928,3.331c3.557,1.702,4.259,4.276,2.449,7.576c-1.901,3.466-4.39,4.414-8.146,2.228   c-14.963-8.709-30.029-17.24-45.063-25.827c-1.952-1.115-3.939-2.169-6.526-3.589c-2.055,3.469-3.983,6.725-6.223,10.505   c2.978,1.786,5.544,3.381,8.162,4.885c14.297,8.216,28.557,16.497,42.944,24.551c3.754,2.101,6.142,4.153,3.514,8.643   c-2.693,4.6-5.865,3.12-9.386,1.086c-16.748-9.677-33.552-19.259-50.926-29.213c-2.205,3.794-4.219,7.261-6.556,11.284   c6.376,3.69,12.368,7.184,18.386,10.635c11.264,6.46,22.499,12.972,33.84,19.293c3.417,1.905,4.284,4.269,2.468,7.587   c-1.892,3.456-4.36,4.45-8.133,2.263c-17.115-9.922-34.327-19.678-52.07-29.817c-1.128,1.792-2.241,3.441-3.235,5.158   c-13.323,23.01-26.553,46.076-40.022,69c-2.09,3.556-2.228,6.535-0.88,10.34c29.394,83.019,58.675,166.077,87.973,249.13   c1.137,3.224,2.23,6.464,3.343,9.696c-0.644,0.282-1.288,0.564-1.931,0.847C315.775,443.414,278.877,370.47,241.395,296.37z    M150.057,73.753c0.078-18.608-15.021-34.022-33.531-34.23c-18.88-0.213-34.455,15.053-34.541,33.855   c-0.086,18.854,15.287,34.249,34.166,34.216C134.723,107.561,149.979,92.334,150.057,73.753z M240.88,269.823   c4.68-0.478,7.637-2.865,8.137-7.611c0.464-4.4-3.335-8.376-7.782-8.475c-4.432-0.099-8.417,3.719-8.147,8.136   C233.38,266.642,236.269,269.125,240.88,269.823z">
            </path>
            <path fill="none" d="M194.593,51.704"></path>
          </g>
          <path xmlns="http://www.w3.org/2000/svg" d="M60.833-58.798"></path>
          <path xmlns="http://www.w3.org/2000/svg" d="M154.605,120.645"></path>
        </g>
        <g id="SvgjsG1189" featurekey="nameFeature-0"
          transform="matrix(3.7288124310920985,0,0,3.7288124310920985,0.3081694681838987,260.5324139414281)"
          fill="url(#SvgjsLinearGradient1203)">
          <path
            d="M4.7059 16.203 l-3.984 0 l0 -4.2513 l11.658 0 l0 4.2513 l-5.0802 0 l1.0963 0.80214 l0 22.968 l-3.6898 0 l0 -23.77 z M17.566795721925132 35.8021 l4.3048 0 l0 -23.797 l3.6898 0 l0 25.348 c0 1.4973 -1.2299 2.6471 -2.6471 2.6471 l-6.3636 0.026738 c-1.4973 0 -2.6471 -1.1765 -2.6471 -2.6738 l0 -24.519 l-0.026738 0 l-0.66845 -0.82888 l4.3583 0 l0 23.797 z M31.417101069518715 23.824 l4.3048 0 l0 -7.6738 l-5.4011 0 l1.0963 0.82888 l0 6.8449 z M39.385401069518714 14.599 l0 10.802 c0 1.4973 -1.1497 2.6471 -2.6471 2.6471 l-0.50802 0 l3.1551 11.898 l-3.7968 0 l-3.1551 -11.898 l-2.1123 0 l1.0963 0.82888 l0 11.07 l-3.6898 0 l0 -23.797 l0 -3.3957 l-0.66845 -0.82888 l9.6791 0.026738 c1.4973 0 2.6471 1.1497 2.6471 2.6471 z M40.21390534759358 12.004999999999999 l5.2406 0 l3.4225 15.267 l0 -15.241 l3.6631 0 l0 27.968 l-4.5722 0 l-3.3957 -15.187 l0 15.214 l-3.6898 0 l0 -27.193 z M60.29416631016042 28.102 l-5.8289 0 l0 -4.2246 l5.8289 0 l0 4.2246 z M65.82883903743316 35.8021 l4.3316 0 l0 -19.545 l-5.4011 0 l1.0695 0.82888 l0 18.717 z M73.82313903743315 14.678999999999998 l0 22.701 c0 1.4973 -1.1497 2.6471 -2.6471 2.6471 l-6.3636 0 c-1.4973 0 -2.6471 -1.1497 -2.6471 -2.6471 l0 -22.701 c0 -1.4171 1.1497 -2.6471 2.6471 -2.6471 l6.3636 0 c1.4973 0 2.6471 1.2299 2.6471 2.6471 z M74.75935989304813 12.004999999999999 l5.2406 0 l3.4225 15.267 l0 -15.241 l3.6631 0 l0 27.968 l-4.5722 0 l-3.3957 -15.187 l0 15.214 l-3.6898 0 l0 -27.193 z">
          </path>
        </g>
        <g id="SvgjsG1190" featurekey="sloganFeature-0"
          transform="matrix(0.9849242313007376,0,0,0.9849242313007376,34.015075827405326,422.98734052515135)"
          fill="url(#SvgjsLinearGradient1207)">
          <path
            d="M6.34 20.12 c-0.96 0 -1.92 -0.18 -2.84 -0.54 c-0.92 -0.34 -1.74 -0.84 -2.42 -1.44 c-0.08 -0.08 -0.1 -0.2 -0.06 -0.3 l0.7 -2.38 c0.04 -0.08 0.1 -0.14 0.18 -0.14 c0.08 -0.02 0.16 0 0.22 0.06 c1.06 1 2.26 1.9 3.76 1.98 c0.4 0.02 0.84 0.04 1.22 -0.08 c1.18 -0.38 0.68 -1.58 -0.2 -1.94 c-0.3 -0.12 -0.72 -0.26 -1.26 -0.42 c-0.8 -0.22 -1.46 -0.46 -1.96 -0.7 c-0.54 -0.24 -1 -0.62 -1.4 -1.12 c-0.38 -0.52 -0.58 -1.2 -0.58 -2.02 c0 -0.78 0.2 -1.46 0.6 -2.04 s0.96 -1.04 1.66 -1.34 s1.52 -0.46 2.44 -0.46 c0.82 0 1.62 0.12 2.42 0.38 c0.78 0.24 1.48 0.58 2.1 0.98 c0.1 0.08 0.14 0.2 0.08 0.32 l-0.66 2.24 c-0.02 0.08 -0.08 0.12 -0.16 0.14 c-0.06 0.02 -0.14 0.02 -0.2 -0.02 c-0.9 -0.56 -1.8 -1.24 -2.86 -1.38 c-0.7 -0.1 -1.76 -0.06 -2 0.78 c-0.3 1.08 1.28 1.36 2 1.58 c0.8 0.24 1.46 0.48 1.98 0.72 c0.54 0.26 1.02 0.66 1.4 1.16 c0.4 0.52 0.6 1.22 0.6 2.06 c0 0.82 -0.22 1.52 -0.64 2.12 c-0.4 0.6 -0.98 1.04 -1.7 1.36 c-0.72 0.28 -1.52 0.44 -2.42 0.44 z M15.679499999999999 20 l0 -11.98 c0 -0.5 0.1 -0.6 0.26 -0.6 l8.76 0 c0.14 0 0.26 0.1 0.26 0.24 l0 2.26 c0 0.14 -0.12 0.26 -0.26 0.26 l-5.92 0 l0 2.08 l3.74 0 c0.14 0 0.26 0.12 0.26 0.26 l0 2.24 c0 0.14 -0.12 0.26 -0.26 0.26 l-3.74 0 l0 2.14 l5.9 0 c0.14 0 0.26 0.12 0.26 0.26 l0 2.24 c0 0.14 -0.12 0.26 -0.26 0.26 l-8.74 0 c-0.16 0 -0.26 -0.12 -0.26 0.08 z M29.799 20 c-0.16 0 -0.26 -0.12 -0.26 -0.26 l0 -11.98 c0 -0.14 0.1 -0.26 0.26 -0.26 l4.88 0 c1.52 0 2.72 0.38 3.56 1.16 c1.24 1.12 1.66 3.24 1.06 4.8 c-0.22 0.56 -0.6 1.08 -1.08 1.46 c-0.28 0.22 -0.58 0.38 -0.88 0.54 c0.86 1.36 2.16 4.12 2.16 4.12 c0.02 0.04 0.06 0.1 0.06 0.16 c0 0.14 -0.12 0.26 -0.26 0.26 l-2.96 0 c-0.08 0 -0.18 -0.06 -0.22 -0.14 l-1.74 -3.82 c-0.62 0.04 -1.1 0.02 -1.74 0.02 l0 3.68 c0 0.14 -0.12 0.26 -0.26 0.26 l-2.58 0 z M32.638999999999996 13.280000000000001 c0 0 2.52 0.28 3.4 -0.3 c0.34 -0.22 0.54 -0.76 0.54 -1.16 c-0.02 -0.44 -0.24 -0.9 -0.6 -1.18 c-0.38 -0.32 -1.32 -0.42 -1.8 -0.42 l-1.54 0.04 l0 3.02 z M48.418499999999995 20 c-0.1 0 -0.2 -0.06 -0.24 -0.16 l-4 -12 c-0.04 -0.08 -0.02 -0.16 0.02 -0.24 c0.06 -0.06 0.14 -0.1 0.22 -0.1 l2.8 0 c0.1 0 0.2 0.06 0.24 0.18 l2.38 7.82 l2.4 -7.82 c0.04 -0.12 0.14 -0.18 0.24 -0.18 l2.68 0 c0.08 0 0.16 0.04 0.22 0.1 c0.04 0.08 0.06 0.16 0.02 0.24 l-4.06 12 c-0.04 0.1 -0.12 0.16 -0.24 0.16 l-2.68 0 z M60.257999999999996 20 c-0.14 0 -0.26 -0.12 -0.26 -0.26 l0 -11.98 c0 -0.14 0.12 -0.26 0.26 -0.26 l2.6 0 c0.14 0 0.26 0.12 0.26 0.26 l0 11.98 c0 0.14 -0.12 0.26 -0.26 0.26 l-2.6 0 z M73.99749999999999 20 c-1.18 0 -2.26 -0.28 -3.22 -0.84 c-0.96 -0.58 -1.72 -1.36 -2.26 -2.34 s-0.82 -2.08 -0.82 -3.3 c0 -1.18 0.28 -2.28 0.84 -3.26 c0.56 -0.96 1.34 -1.74 2.3 -2.3 c0.98 -0.56 2.08 -0.84 3.24 -0.84 c0.88 0 1.74 0.2 2.58 0.56 c0.84 0.38 1.56 0.88 2.16 1.52 c0.08 0.1 0.08 0.24 0 0.34 l-1.9 1.56 c-0.06 0.06 -0.12 0.1 -0.2 0.1 s-0.16 -0.04 -0.2 -0.1 c-1.02 -1.24 -2.66 -1.5 -4.04 -0.64 c-1.2 0.74 -1.64 2.1 -1.58 3.46 c0.06 1.38 1.06 2.56 2.38 2.96 c1.2 0.36 2.38 0.08 3.24 -0.84 c0.06 -0.04 0.12 -0.08 0.2 -0.06 c0.08 0 0.14 0.02 0.18 0.08 l1.94 1.36 c0.08 0.1 0.08 0.24 0 0.34 c-0.64 0.68 -1.4 1.24 -2.24 1.64 c-0.86 0.4 -1.74 0.6 -2.6 0.6 z M83.737 20 c-0.14 0 -0.26 -0.12 -0.26 -0.26 l0 -11.98 c0 -0.14 0.12 -0.26 0.26 -0.26 l2.6 0 c0.14 0 0.26 0.12 0.26 0.26 l0 11.98 c0 0.14 -0.12 0.26 -0.26 0.26 l-2.6 0 z M97.61649999999999 20 c-1.2 0 -2.3 -0.28 -3.26 -0.84 c-0.98 -0.56 -1.76 -1.36 -2.34 -2.32 c-0.56 -0.98 -0.84 -2.1 -0.84 -3.3 c0 -1.18 0.28 -2.28 0.84 -3.26 c0.58 -0.98 1.34 -1.76 2.32 -2.32 s2.08 -0.84 3.28 -0.84 c1.18 0 2.28 0.28 3.26 0.84 s1.76 1.34 2.32 2.32 c0.58 0.98 0.86 2.08 0.86 3.26 c0 1.2 -0.28 2.3 -0.86 3.28 c-0.56 0.98 -1.34 1.76 -2.32 2.34 c-0.98 0.56 -2.08 0.84 -3.26 0.84 z M97.6565 17.12 c0.58 0 1.12 -0.16 1.6 -0.46 c0.5 -0.32 0.9 -0.74 1.18 -1.3 c0.3 -0.54 0.44 -1.16 0.44 -1.82 c0 -0.64 -0.14 -1.26 -0.44 -1.8 c-0.28 -0.54 -0.68 -0.96 -1.18 -1.28 c-0.48 -0.3 -1.02 -0.46 -1.6 -0.46 c-0.6 0 -1.14 0.16 -1.64 0.46 c-0.52 0.32 -0.92 0.74 -1.22 1.28 c-0.3 0.56 -0.44 1.16 -0.44 1.8 c0 0.66 0.14 1.28 0.44 1.82 c0.32 0.54 0.72 0.98 1.22 1.28 c0.5 0.32 1.04 0.48 1.64 0.48 z M113.776 20.12 c-0.96 0 -1.92 -0.18 -2.84 -0.54 c-0.92 -0.34 -1.74 -0.84 -2.42 -1.44 c-0.08 -0.08 -0.1 -0.2 -0.06 -0.3 l0.7 -2.38 c0.04 -0.08 0.1 -0.14 0.18 -0.14 c0.08 -0.02 0.16 0 0.22 0.06 c1.06 1 2.26 1.9 3.76 1.98 c0.4 0.02 0.84 0.04 1.22 -0.08 c1.18 -0.38 0.68 -1.58 -0.2 -1.94 c-0.3 -0.12 -0.72 -0.26 -1.26 -0.42 c-0.8 -0.22 -1.46 -0.46 -1.96 -0.7 c-0.54 -0.24 -1 -0.62 -1.4 -1.12 c-0.38 -0.52 -0.58 -1.2 -0.58 -2.02 c0 -0.78 0.2 -1.46 0.6 -2.04 s0.96 -1.04 1.66 -1.34 s1.52 -0.46 2.44 -0.46 c0.82 0 1.62 0.12 2.42 0.38 c0.78 0.24 1.48 0.58 2.1 0.98 c0.1 0.08 0.14 0.2 0.08 0.32 l-0.66 2.24 c-0.02 0.08 -0.08 0.12 -0.16 0.14 c-0.06 0.02 -0.14 0.02 -0.2 -0.02 c-0.9 -0.56 -1.8 -1.24 -2.86 -1.38 c-0.7 -0.1 -1.76 -0.06 -2 0.78 c-0.3 1.08 1.28 1.36 2 1.58 c0.8 0.24 1.46 0.48 1.98 0.72 c0.54 0.26 1.02 0.66 1.4 1.16 c0.4 0.52 0.6 1.22 0.6 2.06 c0 0.82 -0.22 1.52 -0.64 2.12 c-0.4 0.6 -0.98 1.04 -1.7 1.36 c-0.72 0.28 -1.52 0.44 -2.42 0.44 z M131.355 20 c-0.16 0 -0.26 -0.12 -0.26 -0.26 l0 -11.98 c0 -0.14 0.1 -0.26 0.26 -0.26 l4.54 0 c1.2 0 2.3 0.26 3.26 0.8 c0.96 0.52 1.7 1.26 2.24 2.22 c0.52 0.94 0.8 2.02 0.8 3.22 c0 1.22 -0.28 2.3 -0.82 3.24 c-0.54 0.96 -1.3 1.7 -2.28 2.22 c-0.96 0.54 -2.08 0.8 -3.3 0.8 l-4.44 0 z M134.195 17.2 l1.76 0 c0.58 0 1.12 -0.14 1.58 -0.42 c0.46 -0.3 0.84 -0.7 1.1 -1.22 s0.4 -1.12 0.4 -1.8 c0 -0.66 -0.14 -1.28 -0.42 -1.8 c-0.28 -0.54 -0.66 -0.94 -1.14 -1.24 c-0.48 -0.28 -1.04 -0.44 -1.64 -0.44 l-1.64 0 l0 6.92 z M146.7745 20 l0 -11.98 c0 -0.5 0.1 -0.6 0.26 -0.6 l8.76 0 c0.14 0 0.26 0.1 0.26 0.24 l0 2.26 c0 0.14 -0.12 0.26 -0.26 0.26 l-5.92 0 l0 2.08 l3.74 0 c0.14 0 0.26 0.12 0.26 0.26 l0 2.24 c0 0.14 -0.12 0.26 -0.26 0.26 l-3.74 0 l0 2.14 l5.9 0 c0.14 0 0.26 0.12 0.26 0.26 l0 2.24 c0 0.14 -0.12 0.26 -0.26 0.26 l-8.74 0 c-0.16 0 -0.26 -0.12 -0.26 0.08 z M174.9135 20 c-1.18 0 -2.26 -0.28 -3.22 -0.84 c-0.96 -0.58 -1.72 -1.36 -2.26 -2.34 s-0.82 -2.08 -0.82 -3.3 c0 -1.18 0.28 -2.28 0.84 -3.26 c0.56 -0.96 1.34 -1.74 2.3 -2.3 c0.98 -0.56 2.08 -0.84 3.24 -0.84 c0.88 0 1.74 0.2 2.58 0.56 c0.84 0.38 1.56 0.88 2.16 1.52 c0.08 0.1 0.08 0.24 0 0.34 l-1.9 1.56 c-0.06 0.06 -0.12 0.1 -0.2 0.1 s-0.16 -0.04 -0.2 -0.1 c-1.02 -1.24 -2.66 -1.5 -4.04 -0.64 c-1.2 0.74 -1.64 2.1 -1.58 3.46 c0.06 1.38 1.06 2.56 2.38 2.96 c1.2 0.36 2.38 0.08 3.24 -0.84 c0.06 -0.04 0.12 -0.08 0.2 -0.06 c0.08 0 0.14 0.02 0.18 0.08 l1.94 1.36 c0.08 0.1 0.08 0.24 0 0.34 c-0.64 0.68 -1.4 1.24 -2.24 1.64 c-0.86 0.4 -1.74 0.6 -2.6 0.6 z M183.653 20 c-0.08 0 -0.16 -0.04 -0.2 -0.12 c-0.06 -0.06 -0.06 -0.16 -0.04 -0.24 l4.66 -11.98 c0.04 -0.1 0.14 -0.16 0.24 -0.16 l2.68 0 c0.1 0 0.2 0.06 0.24 0.16 l4.58 11.98 c0.02 0.08 0.02 0.16 -0.04 0.24 c-0.04 0.08 -0.12 0.12 -0.2 0.12 l-2.78 0 c-0.1 0 -0.2 -0.06 -0.24 -0.16 l-0.74 -1.84 l-4.5 0.02 l-0.74 1.82 c-0.04 0.1 -0.14 0.16 -0.24 0.16 l-2.68 0 z M188.133 15.5 l2.88 0 l-1.44 -4.24 z M200.4725 20 c-0.14 0 -0.26 -0.12 -0.26 -0.26 l0 -11.98 c0 -0.14 0.12 -0.26 0.26 -0.26 l2.6 0 c0.14 0 0.26 0.12 0.26 0.26 l0 9.36 l4.5 0 c0.14 0 0.26 0.12 0.26 0.26 l0 2.36 c0 0.14 -0.12 0.26 -0.26 0.26 l-7.36 0 z M212.932 20 c-0.14 0 -0.26 -0.12 -0.26 -0.26 l0 -11.98 c0 -0.14 0.12 -0.26 0.26 -0.26 l2.6 0 c0.14 0 0.26 0.12 0.26 0.26 l0 11.98 c0 0.14 -0.12 0.26 -0.26 0.26 l-2.6 0 z M220.6315 20 c-0.16 0 -0.26 -0.12 -0.26 -0.26 l0 -11.98 c0 -0.14 0.1 -0.26 0.26 -0.26 l4.54 0 c1.2 0 2.3 0.26 3.26 0.8 c0.96 0.52 1.7 1.26 2.24 2.22 c0.52 0.94 0.8 2.02 0.8 3.22 c0 1.22 -0.28 2.3 -0.82 3.24 c-0.54 0.96 -1.3 1.7 -2.28 2.22 c-0.96 0.54 -2.08 0.8 -3.3 0.8 l-4.44 0 z M223.4715 17.2 l1.76 0 c0.58 0 1.12 -0.14 1.58 -0.42 c0.46 -0.3 0.84 -0.7 1.1 -1.22 s0.4 -1.12 0.4 -1.8 c0 -0.66 -0.14 -1.28 -0.42 -1.8 c-0.28 -0.54 -0.66 -0.94 -1.14 -1.24 c-0.48 -0.28 -1.04 -0.44 -1.64 -0.44 l-1.64 0 l0 6.92 z M234.91099999999997 20 c-0.08 0 -0.16 -0.04 -0.2 -0.12 c-0.06 -0.06 -0.06 -0.16 -0.04 -0.24 l4.66 -11.98 c0.04 -0.1 0.14 -0.16 0.24 -0.16 l2.68 0 c0.1 0 0.2 0.06 0.24 0.16 l4.58 11.98 c0.02 0.08 0.02 0.16 -0.04 0.24 c-0.04 0.08 -0.12 0.12 -0.2 0.12 l-2.78 0 c-0.1 0 -0.2 -0.06 -0.24 -0.16 l-0.74 -1.84 l-4.5 0.02 l-0.74 1.82 c-0.04 0.1 -0.14 0.16 -0.24 0.16 l-2.68 0 z M239.391 15.5 l2.88 0 l-1.44 -4.24 z M251.73049999999998 20 c-0.16 0 -0.26 -0.12 -0.26 -0.26 l0 -11.98 c0 -0.14 0.1 -0.26 0.26 -0.26 l4.54 0 c1.2 0 2.3 0.26 3.26 0.8 c0.96 0.52 1.7 1.26 2.24 2.22 c0.52 0.94 0.8 2.02 0.8 3.22 c0 1.22 -0.28 2.3 -0.82 3.24 c-0.54 0.96 -1.3 1.7 -2.28 2.22 c-0.96 0.54 -2.08 0.8 -3.3 0.8 l-4.44 0 z M254.57049999999998 17.2 l1.76 0 c0.58 0 1.12 -0.14 1.58 -0.42 c0.46 -0.3 0.84 -0.7 1.1 -1.22 s0.4 -1.12 0.4 -1.8 c0 -0.66 -0.14 -1.28 -0.42 -1.8 c-0.28 -0.54 -0.66 -0.94 -1.14 -1.24 c-0.48 -0.28 -1.04 -0.44 -1.64 -0.44 l-1.64 0 l0 6.92 z">
          </path>
        </g>
      </svg>